<svg version="1.1" id="Layer_1" xmlns="http://www.w3.org/2000/svg" xmlns:xlink="http://www.w3.org/1999/xlink" x="0px" y="0px"
	 width="100%" viewBox="0 0 446 136" enable-background="new 0 0 446 136" xml:space="preserve">
<path fill="#FEFEFE" opacity="1.000000" stroke="none" 
	d="
M447.000000,3.000000 
	C447.000000,47.639286 447.000000,92.278572 447.000000,136.958923 
	C298.451843,136.958923 149.903687,136.958923 1.000000,136.958923 
	C1.000000,92.646408 1.000000,48.291859 1.463884,3.467974 
	C150.285172,2.999089 298.642578,2.999544 447.000000,3.000000 
M189.757675,84.375198 
	C190.200806,85.252266 190.610489,86.869102 191.092285,86.890877 
	C195.455643,87.088081 199.831604,87.006393 205.399338,87.006393 
	C197.010223,79.759109 202.933807,71.004509 199.950272,62.905109 
	C196.542709,63.538990 192.960266,64.205406 189.483994,64.852066 
	C191.079498,67.319016 192.748291,68.798920 192.968460,70.469704 
	C193.421341,73.906578 193.094666,77.445541 193.098114,80.942474 
	C193.101059,83.937683 191.720108,85.026703 188.860886,83.295921 
	C187.818909,78.105675 184.187378,84.827957 182.208893,80.489845 
	C182.208893,77.260246 182.208893,72.566826 182.208893,68.532944 
	C184.431091,67.435295 186.252945,66.535393 188.074783,65.635498 
	C187.849899,65.136398 187.625000,64.637306 187.400101,64.138206 
	C185.631393,64.025879 183.862671,63.913551 181.996063,63.795002 
	C181.834747,61.432167 181.692291,59.345455 181.549835,57.258743 
	C181.108414,56.924934 180.667007,56.591125 180.225601,56.257317 
	C177.056503,59.462132 173.887421,62.666950 171.761993,64.816322 
	C172.831589,68.168938 173.777039,70.126732 174.027710,72.169785 
	C174.349487,74.792435 174.017929,77.487770 174.135254,80.144402 
	C174.449631,87.262573 179.561630,89.951149 185.755508,86.277931 
	C186.868652,85.617783 187.869370,84.768051 189.757675,84.375198 
M136.558731,67.646851 
	C135.290039,72.281746 137.176041,75.261719 141.302856,77.375114 
	C143.787735,78.647659 146.019058,80.415314 148.790268,82.241104 
	C141.283264,88.403664 140.810287,78.372635 136.456482,77.842743 
	C136.456482,81.404427 136.456482,84.339615 136.456482,87.331978 
	C140.462860,87.331978 144.196915,87.475487 147.914566,87.290146 
	C151.378815,87.117439 154.066055,85.470940 154.782089,81.853882 
	C155.520233,78.125038 153.868439,75.411163 150.534653,73.662193 
	C148.330353,72.505775 146.075241,71.416344 144.006500,70.049278 
	C143.366699,69.626488 142.740234,67.964439 143.025085,67.612663 
	C143.636887,66.857117 145.214294,65.936188 145.740967,66.235672 
	C147.356171,67.154099 148.663986,68.614311 150.087555,69.868149 
	C150.978622,70.652977 151.862900,71.445518 153.462692,72.868202 
	C153.462692,69.003738 153.462692,66.443413 153.462692,63.881771 
	C139.494980,64.270233 139.494980,64.270233 135.147812,66.573395 
	C136.009583,62.958462 133.310516,63.860424 131.537750,63.837196 
	C129.399460,63.809181 127.257973,64.024925 123.855408,64.200180 
	C126.122620,65.987480 127.166618,66.810486 128.276398,67.685349 
	C126.808525,71.483704 125.468857,74.950310 124.129189,78.416916 
	C122.791237,73.515793 117.272743,69.722481 121.483818,64.237808 
	C117.040657,64.237808 113.067192,64.237808 107.682022,64.237808 
	C115.883041,69.603088 110.602882,74.100021 108.478973,78.771500 
	C107.679161,73.939125 101.583397,70.211731 105.840065,64.350609 
	C101.275742,64.350609 96.865562,64.350609 92.819763,64.350609 
	C94.622047,67.567886 96.415337,70.415062 97.854309,73.431259 
	C99.495781,76.871925 100.603218,80.579308 102.387444,83.934280 
	C103.145889,85.360435 104.952255,86.880646 106.436401,87.056213 
	C107.553558,87.188377 109.307137,85.480370 110.087456,84.178085 
	C111.675957,81.527023 112.798309,78.596634 114.397308,75.171837 
	C115.674255,78.569618 116.417358,81.331863 117.743958,83.777618 
	C118.519600,85.207634 120.247536,87.061432 121.509399,87.033310 
	C122.878250,87.002815 124.730606,85.270226 125.450035,83.821869 
	C127.734818,79.222153 129.401245,74.312820 131.732193,69.740067 
	C132.388611,68.452324 134.506897,67.909760 136.558731,67.646851 
M325.490540,69.071465 
	C323.694611,69.071465 321.898682,69.071465 319.756073,69.071465 
	C319.682251,63.734554 318.108276,58.514584 325.573090,55.521576 
	C318.295715,55.521576 312.841705,55.521576 307.387726,55.521576 
	C313.394928,58.252659 311.808350,63.300629 311.892456,67.690353 
	C311.933899,69.854729 311.923462,72.020859 311.894684,74.185646 
	C311.836395,78.572998 313.084778,83.481094 307.412537,85.707733 
	C307.356262,85.729828 307.517792,86.306801 307.552551,86.491409 
	C313.036469,86.491409 318.474426,86.491409 323.912354,86.491409 
	C317.302460,82.909927 320.175903,77.389580 319.766296,72.613281 
	C324.469360,72.613281 328.549133,72.613281 332.854340,72.613281 
	C332.808380,77.823860 334.859375,83.305214 328.576691,86.642593 
	C334.031219,86.642593 339.485718,86.642593 344.429565,86.642593 
	C338.745117,76.010078 338.835052,65.657257 344.123840,55.434532 
	C339.373413,55.434532 333.901215,55.434532 327.978088,55.434532 
	C333.555603,61.299480 333.664948,61.657963 332.322662,69.071465 
	C330.403900,69.071465 328.430023,69.071465 325.490540,69.071465 
M224.021362,63.840225 
	C224.004333,64.667076 223.872482,65.511803 223.997757,66.316498 
	C224.176437,67.464272 225.060547,68.765892 224.736465,69.680412 
	C223.619965,72.831085 222.109558,75.842171 220.146439,80.264145 
	C219.564499,73.880203 213.120148,69.961494 218.564484,64.239075 
	C213.517746,64.239075 209.030624,64.239075 204.957626,64.239075 
	C207.122101,68.428146 209.233826,72.365517 211.199753,76.374374 
	C212.439514,78.902466 213.255585,81.657066 214.662628,84.076942 
	C215.431564,85.399376 217.015518,87.036133 218.267624,87.066650 
	C219.508072,87.096886 221.297470,85.546082 221.969604,84.238266 
	C224.544998,79.227234 226.603790,73.947556 229.252029,68.979576 
	C229.825058,67.904556 232.122910,67.118927 233.479340,67.300102 
	C234.481247,67.433945 236.050385,69.409554 235.978622,70.470703 
	C235.608398,75.944183 238.423462,82.106003 232.256561,86.527481 
	C237.704071,86.527481 242.472153,86.527481 247.240250,86.527481 
	C247.685272,86.208458 248.130295,85.889442 248.575302,85.570419 
	C242.075897,83.998581 243.939240,79.557602 243.807800,75.878265 
	C243.661346,71.777946 243.774231,67.668381 243.774231,62.971481 
	C240.175278,63.432697 237.269592,64.011086 234.345947,64.123741 
	C231.211929,64.244522 228.061020,63.927094 224.021362,63.840225 
M396.447815,86.187096 
	C402.846741,82.244888 405.299225,73.485878 401.636169,67.113724 
	C399.530548,63.450848 396.175171,62.431534 392.229462,63.635025 
	C390.732635,64.091576 389.379211,65.018219 387.290283,66.067062 
	C387.290283,61.302841 387.290283,57.082253 387.290283,52.095509 
	C383.261169,52.916534 379.940430,53.593208 377.730621,54.043503 
	C378.712952,57.945332 379.793335,60.649052 379.999664,63.417912 
	C380.332397,67.882500 380.089081,72.390015 380.089081,76.879395 
	C380.089081,86.891106 382.049438,88.560036 392.366577,87.266365 
	C393.511627,87.122787 394.633423,86.794083 396.447815,86.187096 
M57.984795,55.045921 
	C51.480820,55.045921 44.976845,55.045921 38.472870,55.045921 
	C38.195843,55.415371 37.918816,55.784817 37.641788,56.154266 
	C45.745037,59.206013 42.710758,65.678635 42.740913,70.884308 
	C42.771923,76.237770 45.600918,82.767578 36.666775,86.463799 
	C44.282681,86.463799 50.097794,86.463799 55.912910,86.463799 
	C49.128033,83.965607 50.431286,78.919586 50.968224,74.025864 
	C61.863174,73.881813 66.220192,71.483047 66.975555,65.418594 
	C67.695648,59.637287 65.689674,57.097069 57.984795,55.045921 
M367.047546,87.187103 
	C370.180511,86.744270 373.313446,86.301430 377.235962,85.746994 
	C369.210876,79.021515 375.181244,70.605896 372.066864,63.397720 
	C368.599243,63.701000 365.021484,64.013916 361.443756,64.326820 
	C360.983978,64.849960 360.524231,65.373100 360.064453,65.896240 
	C366.530457,66.172134 365.460175,70.094803 365.526703,73.457672 
	C365.553009,74.788498 365.999878,76.390221 365.424805,77.391739 
	C364.430206,79.123871 362.787720,80.483978 361.417023,82.000153 
	C360.265778,80.568100 358.269836,79.217789 358.121826,77.688652 
	C357.680206,73.125191 357.963257,68.491600 357.963257,63.287998 
	C353.916870,63.677052 350.510223,64.004593 348.346527,64.212624 
	C349.209717,68.177101 350.016449,71.282265 350.524353,74.435555 
	C350.839081,76.389503 350.602600,78.425400 350.782837,80.409126 
	C351.348053,86.629700 355.930084,89.260178 361.716278,86.670937 
	C363.017487,86.088676 364.178070,85.192261 365.474121,84.397079 
	C365.809845,85.460648 366.046722,86.210991 367.047546,87.187103 
M69.257668,80.050903 
	C69.162979,86.367424 72.481903,89.046638 78.320084,87.000977 
	C80.458710,86.251617 81.899368,85.639732 84.312531,86.938370 
	C88.003311,88.924561 91.849228,86.795761 93.727707,82.371605 
	C92.201752,82.528305 90.885933,82.663422 89.082390,82.848625 
	C89.082390,79.577003 89.088486,76.614838 89.081261,73.652710 
	C89.058853,64.457726 81.962158,60.009071 73.756516,64.372940 
	C72.117958,65.244347 71.248589,67.813515 70.442200,69.771820 
	C70.292992,70.134155 72.735092,72.163406 72.982559,71.990883 
	C74.475136,70.950294 75.675781,69.491547 76.976662,68.175224 
	C77.691010,67.452400 78.468018,66.111771 79.112930,66.171471 
	C79.925682,66.246704 81.006035,67.337074 81.313339,68.218689 
	C82.163895,70.658836 81.870789,72.243027 78.732460,73.390251 
	C75.382942,74.614693 72.561760,77.284462 69.257668,80.050903 
M271.843018,73.780754 
	C273.535553,77.194740 275.342194,80.557762 276.894653,84.034294 
	C279.407501,89.661522 277.018341,92.796570 271.001038,92.384331 
	C269.795044,92.301712 268.483276,93.762711 267.220276,94.511971 
	C268.279327,95.708054 269.552307,98.041786 270.357910,97.890274 
	C272.937988,97.405029 276.010132,96.608032 277.660614,94.804283 
	C280.048309,92.194931 281.504059,88.670677 283.097961,85.409904 
	C286.519287,78.410530 289.774719,71.330078 293.122894,64.230202 
	C290.699127,64.230202 287.627808,64.230202 284.182831,64.230202 
	C288.615082,70.018044 283.401703,73.823921 282.256744,78.436157 
	C281.552887,73.528473 274.401123,70.269981 279.308716,64.240868 
	C274.617889,64.240868 270.313446,64.240868 265.904816,64.240868 
	C267.918884,67.453094 269.698212,70.290993 271.843018,73.780754 
M259.601074,63.898422 
	C259.178192,61.713287 258.755310,59.528156 258.228577,56.806435 
	C252.560028,57.605198 251.933899,63.729542 248.837433,65.084900 
	C249.792862,68.227356 250.765930,70.347595 251.027191,72.552185 
	C251.377563,75.508919 251.087326,78.535416 251.236938,81.523705 
	C251.415375,85.087845 252.899414,87.750290 256.914917,87.678703 
	C260.948181,87.606804 264.555542,86.585777 266.319183,81.357903 
	C263.550934,81.758217 261.599518,82.040421 259.176147,82.390862 
	C259.176147,77.222496 259.176147,72.531769 259.176147,68.620003 
	C261.472229,67.451805 263.257477,66.543526 265.042694,65.635254 
	C264.827881,65.076744 264.613068,64.518234 264.398254,63.959724 
	C263.092590,63.959724 261.786957,63.959724 259.601074,63.898422 
M156.688385,85.794182 
	C161.486557,86.363014 166.284714,86.931847 171.082886,87.500687 
	C163.786224,79.820427 170.155930,70.793907 166.781128,62.786644 
	C163.361923,63.541588 159.834671,64.320396 157.427017,64.851997 
	C158.621964,67.954544 159.733704,69.833611 160.018539,71.830612 
	C160.391006,74.442123 159.886230,77.171021 160.170792,79.804909 
	C160.471085,82.584282 159.244598,84.077515 156.688385,85.794182 
M199.527115,60.040085 
	C201.906937,57.069489 201.625534,54.453190 197.968338,53.110142 
	C196.758591,52.665882 194.407928,53.303741 193.624741,54.283138 
	C192.816742,55.293549 192.617294,58.161667 193.331406,58.727146 
	C194.733505,59.837399 196.953827,59.914337 199.527115,60.040085 
M165.875015,53.253326 
	C163.918289,53.871460 161.961548,54.489594 160.004822,55.107723 
	C160.559036,56.831444 160.639771,59.137272 161.817108,60.094898 
	C162.760727,60.862411 166.279480,60.400002 166.484207,59.773678 
	C167.077499,57.958664 166.576935,55.786095 165.875015,53.253326 
M236.068558,54.839153 
	C236.662460,56.687069 236.753555,59.169197 238.017838,60.171535 
	C238.940659,60.903149 241.931366,60.221611 243.017746,59.162365 
	C243.842926,58.357784 243.503326,54.650494 243.022430,54.511166 
	C240.977493,53.918667 238.686859,54.174202 236.068558,54.839153 
z"/>
<path fill="#D9D9D9" opacity="1.000000" stroke="none" 
	d="
M447.000000,2.500001 
	C298.642578,2.999544 150.285172,2.999089 1.463883,2.999316 
	C1.333333,2.333333 1.548027,1.216341 2.023962,1.090954 
	C3.114909,0.803541 4.333333,1.000000 5.500000,1.000000 
	C151.166672,1.000000 296.833344,0.996998 442.500000,1.041410 
	C444.000092,1.041867 445.500000,1.666669 447.000000,2.500001 
z"/>
<path fill="#2B2B2B" opacity="1.000000" stroke="none" 
	d="
M325.973358,69.071465 
	C328.430023,69.071465 330.403900,69.071465 332.322662,69.071465 
	C333.664948,61.657963 333.555603,61.299480 327.978088,55.434532 
	C333.901215,55.434532 339.373413,55.434532 344.123840,55.434532 
	C338.835052,65.657257 338.745117,76.010078 344.429565,86.642593 
	C339.485718,86.642593 334.031219,86.642593 328.576691,86.642593 
	C334.859375,83.305214 332.808380,77.823860 332.854340,72.613281 
	C328.549133,72.613281 324.469360,72.613281 319.766296,72.613281 
	C320.175903,77.389580 317.302460,82.909927 323.912354,86.491409 
	C318.474426,86.491409 313.036469,86.491409 307.552551,86.491409 
	C307.517792,86.306801 307.356262,85.729828 307.412537,85.707733 
	C313.084778,83.481094 311.836395,78.572998 311.894684,74.185646 
	C311.923462,72.020859 311.933899,69.854729 311.892456,67.690353 
	C311.808350,63.300629 313.394928,58.252659 307.387726,55.521576 
	C312.841705,55.521576 318.295715,55.521576 325.573090,55.521576 
	C318.108276,58.514584 319.682251,63.734554 319.756073,69.071465 
	C321.898682,69.071465 323.694611,69.071465 325.973358,69.071465 
z"/>
<path fill="#2A2A2A" opacity="1.000000" stroke="none" 
	d="
M135.954681,67.025406 
	C134.506897,67.909760 132.388611,68.452324 131.732193,69.740067 
	C129.401245,74.312820 127.734818,79.222153 125.450035,83.821869 
	C124.730606,85.270226 122.878250,87.002815 121.509399,87.033310 
	C120.247536,87.061432 118.519600,85.207634 117.743958,83.777618 
	C116.417358,81.331863 115.674255,78.569618 114.397308,75.171837 
	C112.798309,78.596634 111.675957,81.527023 110.087456,84.178085 
	C109.307137,85.480370 107.553558,87.188377 106.436401,87.056213 
	C104.952255,86.880646 103.145889,85.360435 102.387444,83.934280 
	C100.603218,80.579308 99.495781,76.871925 97.854309,73.431259 
	C96.415337,70.415062 94.622047,67.567886 92.819763,64.350609 
	C96.865562,64.350609 101.275742,64.350609 105.840065,64.350609 
	C101.583397,70.211731 107.679161,73.939125 108.478973,78.771500 
	C110.602882,74.100021 115.883041,69.603088 107.682022,64.237808 
	C113.067192,64.237808 117.040657,64.237808 121.483818,64.237808 
	C117.272743,69.722481 122.791237,73.515793 124.129189,78.416916 
	C125.468857,74.950310 126.808525,71.483704 128.276398,67.685349 
	C127.166618,66.810486 126.122620,65.987480 123.855408,64.200180 
	C127.257973,64.024925 129.399460,63.809181 131.537750,63.837196 
	C133.310516,63.860424 136.009583,62.958462 135.554611,66.827789 
	C135.961411,67.082176 135.954681,67.025406 135.954681,67.025406 
z"/>
<path fill="#2D2D2D" opacity="1.000000" stroke="none" 
	d="
M224.469421,63.820564 
	C228.061020,63.927094 231.211929,64.244522 234.345947,64.123741 
	C237.269592,64.011086 240.175278,63.432697 243.774231,62.971481 
	C243.774231,67.668381 243.661346,71.777946 243.807800,75.878265 
	C243.939240,79.557602 242.075897,83.998581 248.575302,85.570419 
	C248.130295,85.889442 247.685272,86.208458 247.240250,86.527481 
	C242.472153,86.527481 237.704071,86.527481 232.256561,86.527481 
	C238.423462,82.106003 235.608398,75.944183 235.978622,70.470703 
	C236.050385,69.409554 234.481247,67.433945 233.479340,67.300102 
	C232.122910,67.118927 229.825058,67.904556 229.252029,68.979576 
	C226.603790,73.947556 224.544998,79.227234 221.969604,84.238266 
	C221.297470,85.546082 219.508072,87.096886 218.267624,87.066650 
	C217.015518,87.036133 215.431564,85.399376 214.662628,84.076942 
	C213.255585,81.657066 212.439514,78.902466 211.199753,76.374374 
	C209.233826,72.365517 207.122101,68.428146 204.957626,64.239075 
	C209.030624,64.239075 213.517746,64.239075 218.564484,64.239075 
	C213.120148,69.961494 219.564499,73.880203 220.146439,80.264145 
	C222.109558,75.842171 223.619965,72.831085 224.736465,69.680412 
	C225.060547,68.765892 224.176437,67.464272 223.997757,66.316498 
	C223.872482,65.511803 224.004333,64.667076 224.469421,63.820564 
z"/>
<path fill="#292929" opacity="1.000000" stroke="none" 
	d="
M396.106934,86.369171 
	C394.633423,86.794083 393.511627,87.122787 392.366577,87.266365 
	C382.049438,88.560036 380.089081,86.891106 380.089081,76.879395 
	C380.089081,72.390015 380.332397,67.882500 379.999664,63.417912 
	C379.793335,60.649052 378.712952,57.945332 377.730621,54.043503 
	C379.940430,53.593208 383.261169,52.916534 387.290283,52.095509 
	C387.290283,57.082253 387.290283,61.302841 387.290283,66.067062 
	C389.379211,65.018219 390.732635,64.091576 392.229462,63.635025 
	C396.175171,62.431534 399.530548,63.450848 401.636169,67.113724 
	C405.299225,73.485878 402.846741,82.244888 396.106934,86.369171 
M393.570190,69.283272 
	C389.846100,67.142746 387.932526,68.857452 387.446991,72.496223 
	C387.101746,75.083420 387.106537,77.795944 387.497253,80.370247 
	C387.698792,81.698135 389.114319,83.873306 389.925690,83.848503 
	C391.334595,83.805435 393.773773,82.478775 393.893005,81.467682 
	C394.340088,77.677162 394.023346,73.796555 393.570190,69.283272 
z"/>
<path fill="#2C2C2C" opacity="1.000000" stroke="none" 
	d="
M58.421230,55.092297 
	C65.689674,57.097069 67.695648,59.637287 66.975555,65.418594 
	C66.220192,71.483047 61.863174,73.881813 50.968224,74.025864 
	C50.431286,78.919586 49.128033,83.965607 55.912910,86.463799 
	C50.097794,86.463799 44.282681,86.463799 36.666775,86.463799 
	C45.600918,82.767578 42.771923,76.237770 42.740913,70.884308 
	C42.710758,65.678635 45.745037,59.206013 37.641788,56.154266 
	C37.918816,55.784817 38.195843,55.415371 38.472870,55.045921 
	C44.976845,55.045921 51.480820,55.045921 58.421230,55.092297 
M50.645729,61.648087 
	C50.645729,64.436516 50.645729,67.224937 50.645729,69.940956 
	C56.656551,70.671661 58.600323,69.488541 59.012611,65.235382 
	C59.442009,60.805767 57.423630,57.972214 53.516251,58.121197 
	C52.528633,58.158859 51.601860,59.792114 50.645729,61.648087 
z"/>
<path fill="#2A2A2A" opacity="1.000000" stroke="none" 
	d="
M366.665558,87.074219 
	C366.046722,86.210991 365.809845,85.460648 365.474121,84.397079 
	C364.178070,85.192261 363.017487,86.088676 361.716278,86.670937 
	C355.930084,89.260178 351.348053,86.629700 350.782837,80.409126 
	C350.602600,78.425400 350.839081,76.389503 350.524353,74.435555 
	C350.016449,71.282265 349.209717,68.177101 348.346527,64.212624 
	C350.510223,64.004593 353.916870,63.677052 357.963257,63.287998 
	C357.963257,68.491600 357.680206,73.125191 358.121826,77.688652 
	C358.269836,79.217789 360.265778,80.568100 361.417023,82.000153 
	C362.787720,80.483978 364.430206,79.123871 365.424805,77.391739 
	C365.999878,76.390221 365.553009,74.788498 365.526703,73.457672 
	C365.460175,70.094803 366.530457,66.172134 360.064453,65.896240 
	C360.524231,65.373100 360.983978,64.849960 361.443756,64.326820 
	C365.021484,64.013916 368.599243,63.701000 372.066864,63.397720 
	C375.181244,70.605896 369.210876,79.021515 377.235962,85.746994 
	C373.313446,86.301430 370.180511,86.744270 366.665558,87.074219 
z"/>
<path fill="#2B2B2B" opacity="1.000000" stroke="none" 
	d="
M69.383804,79.687088 
	C72.561760,77.284462 75.382942,74.614693 78.732460,73.390251 
	C81.870789,72.243027 82.163895,70.658836 81.313339,68.218689 
	C81.006035,67.337074 79.925682,66.246704 79.112930,66.171471 
	C78.468018,66.111771 77.691010,67.452400 76.976662,68.175224 
	C75.675781,69.491547 74.475136,70.950294 72.982559,71.990883 
	C72.735092,72.163406 70.292992,70.134155 70.442200,69.771820 
	C71.248589,67.813515 72.117958,65.244347 73.756516,64.372940 
	C81.962158,60.009071 89.058853,64.457726 89.081261,73.652710 
	C89.088486,76.614838 89.082390,79.577003 89.082390,82.848625 
	C90.885933,82.663422 92.201752,82.528305 93.727707,82.371605 
	C91.849228,86.795761 88.003311,88.924561 84.312531,86.938370 
	C81.899368,85.639732 80.458710,86.251617 78.320084,87.000977 
	C72.481903,89.046638 69.162979,86.367424 69.383804,79.687088 
M81.731895,81.168030 
	C81.731895,79.301483 81.731895,77.434937 81.731895,75.376190 
	C77.467705,76.319580 76.071671,78.583412 77.097771,82.003494 
	C77.205696,82.363213 79.863953,81.957764 81.731895,81.168030 
z"/>
<path fill="#2B2B2B" opacity="1.000000" stroke="none" 
	d="
M271.660278,73.454826 
	C269.698212,70.290993 267.918884,67.453094 265.904816,64.240868 
	C270.313446,64.240868 274.617889,64.240868 279.308716,64.240868 
	C274.401123,70.269981 281.552887,73.528473 282.256744,78.436157 
	C283.401703,73.823921 288.615082,70.018044 284.182831,64.230202 
	C287.627808,64.230202 290.699127,64.230202 293.122894,64.230202 
	C289.774719,71.330078 286.519287,78.410530 283.097961,85.409904 
	C281.504059,88.670677 280.048309,92.194931 277.660614,94.804283 
	C276.010132,96.608032 272.937988,97.405029 270.357910,97.890274 
	C269.552307,98.041786 268.279327,95.708054 267.220276,94.511971 
	C268.483276,93.762711 269.795044,92.301712 271.001038,92.384331 
	C277.018341,92.796570 279.407501,89.661522 276.894653,84.034294 
	C275.342194,80.557762 273.535553,77.194740 271.660278,73.454826 
z"/>
<path fill="#323232" opacity="1.000000" stroke="none" 
	d="
M135.931641,67.084366 
	C139.494980,64.270233 139.494980,64.270233 153.462692,63.881771 
	C153.462692,66.443413 153.462692,69.003738 153.462692,72.868202 
	C151.862900,71.445518 150.978622,70.652977 150.087555,69.868149 
	C148.663986,68.614311 147.356171,67.154099 145.740967,66.235672 
	C145.214294,65.936188 143.636887,66.857117 143.025085,67.612663 
	C142.740234,67.964439 143.366699,69.626488 144.006500,70.049278 
	C146.075241,71.416344 148.330353,72.505775 150.534653,73.662193 
	C153.868439,75.411163 155.520233,78.125038 154.782089,81.853882 
	C154.066055,85.470940 151.378815,87.117439 147.914566,87.290146 
	C144.196915,87.475487 140.462860,87.331978 136.456482,87.331978 
	C136.456482,84.339615 136.456482,81.404427 136.456482,77.842743 
	C140.810287,78.372635 141.283264,88.403664 148.790268,82.241104 
	C146.019058,80.415314 143.787735,78.647659 141.302856,77.375114 
	C137.176041,75.261719 135.290039,72.281746 136.256714,67.336128 
	C135.954681,67.025406 135.961411,67.082176 135.931641,67.084366 
z"/>
<path fill="#303030" opacity="1.000000" stroke="none" 
	d="
M260.041199,63.929073 
	C261.786957,63.959724 263.092590,63.959724 264.398254,63.959724 
	C264.613068,64.518234 264.827881,65.076744 265.042694,65.635254 
	C263.257477,66.543526 261.472229,67.451805 259.176147,68.620003 
	C259.176147,72.531769 259.176147,77.222496 259.176147,82.390862 
	C261.599518,82.040421 263.550934,81.758217 266.319183,81.357903 
	C264.555542,86.585777 260.948181,87.606804 256.914917,87.678703 
	C252.899414,87.750290 251.415375,85.087845 251.236938,81.523705 
	C251.087326,78.535416 251.377563,75.508919 251.027191,72.552185 
	C250.765930,70.347595 249.792862,68.227356 248.837433,65.084900 
	C251.933899,63.729542 252.560028,57.605198 258.228577,56.806435 
	C258.755310,59.528156 259.178192,61.713287 260.041199,63.929073 
z"/>
<path fill="#303030" opacity="1.000000" stroke="none" 
	d="
M188.921997,84.005859 
	C187.869370,84.768051 186.868652,85.617783 185.755508,86.277931 
	C179.561630,89.951149 174.449631,87.262573 174.135254,80.144402 
	C174.017929,77.487770 174.349487,74.792435 174.027710,72.169785 
	C173.777039,70.126732 172.831589,68.168938 171.761993,64.816322 
	C173.887421,62.666950 177.056503,59.462132 180.225601,56.257317 
	C180.667007,56.591125 181.108414,56.924934 181.549835,57.258743 
	C181.692291,59.345455 181.834747,61.432167 181.996063,63.795002 
	C183.862671,63.913551 185.631393,64.025879 187.400101,64.138206 
	C187.625000,64.637306 187.849899,65.136398 188.074783,65.635498 
	C186.252945,66.535393 184.431091,67.435295 182.208893,68.532944 
	C182.208893,72.566826 182.208893,77.260246 182.208893,80.489845 
	C184.187378,84.827957 187.818909,78.105675 188.876404,83.677017 
	C188.891937,84.058113 188.922012,84.005859 188.921997,84.005859 
z"/>
<path fill="#303030" opacity="1.000000" stroke="none" 
	d="
M188.862152,84.062698 
	C191.720108,85.026703 193.101059,83.937683 193.098114,80.942474 
	C193.094666,77.445541 193.421341,73.906578 192.968460,70.469704 
	C192.748291,68.798920 191.079498,67.319016 189.483994,64.852066 
	C192.960266,64.205406 196.542709,63.538990 199.950272,62.905109 
	C202.933807,71.004509 197.010223,79.759109 205.399338,87.006393 
	C199.831604,87.006393 195.455643,87.088081 191.092285,86.890877 
	C190.610489,86.869102 190.200806,85.252266 189.339844,84.190529 
	C188.922012,84.005859 188.891937,84.058113 188.862152,84.062698 
z"/>
<path fill="#303030" opacity="1.000000" stroke="none" 
	d="
M156.795639,85.416809 
	C159.244598,84.077515 160.471085,82.584282 160.170792,79.804909 
	C159.886230,77.171021 160.391006,74.442123 160.018539,71.830612 
	C159.733704,69.833611 158.621964,67.954544 157.427017,64.851997 
	C159.834671,64.320396 163.361923,63.541588 166.781128,62.786644 
	C170.155930,70.793907 163.786224,79.820427 171.082886,87.500687 
	C166.284714,86.931847 161.486557,86.363014 156.795639,85.416809 
z"/>
<path fill="#2E2E2E" opacity="1.000000" stroke="none" 
	d="
M199.181351,60.229462 
	C196.953827,59.914337 194.733505,59.837399 193.331406,58.727146 
	C192.617294,58.161667 192.816742,55.293549 193.624741,54.283138 
	C194.407928,53.303741 196.758591,52.665882 197.968338,53.110142 
	C201.625534,54.453190 201.906937,57.069489 199.181351,60.229462 
z"/>
<path fill="#2E2E2E" opacity="1.000000" stroke="none" 
	d="
M166.190338,53.503586 
	C166.576935,55.786095 167.077499,57.958664 166.484207,59.773678 
	C166.279480,60.400002 162.760727,60.862411 161.817108,60.094898 
	C160.639771,59.137272 160.559036,56.831444 160.004822,55.107727 
	C161.961548,54.489594 163.918289,53.871460 166.190338,53.503586 
z"/>
<path fill="#2E2E2E" opacity="1.000000" stroke="none" 
	d="
M236.277252,54.479614 
	C238.686859,54.174202 240.977493,53.918667 243.022430,54.511166 
	C243.503326,54.650494 243.842926,58.357784 243.017746,59.162365 
	C241.931366,60.221611 238.940659,60.903149 238.017838,60.171535 
	C236.753555,59.169197 236.662460,56.687069 236.277252,54.479614 
z"/>
<path fill="#EEEEEE" opacity="1.000000" stroke="none" 
	d="
M393.781525,69.616493 
	C394.023346,73.796555 394.340088,77.677162 393.893005,81.467682 
	C393.773773,82.478775 391.334595,83.805435 389.925690,83.848503 
	C389.114319,83.873306 387.698792,81.698135 387.497253,80.370247 
	C387.106537,77.795944 387.101746,75.083420 387.446991,72.496223 
	C387.932526,68.857452 389.846100,67.142746 393.781525,69.616493 
z"/>
<path fill="#F8F8F8" opacity="1.000000" stroke="none" 
	d="
M50.646431,61.170124 
	C51.601860,59.792114 52.528633,58.158859 53.516251,58.121197 
	C57.423630,57.972214 59.442009,60.805767 59.012611,65.235382 
	C58.600323,69.488541 56.656551,70.671661 50.645729,69.940956 
	C50.645729,67.224937 50.645729,64.436516 50.646431,61.170124 
z"/>
<path fill="#E9E9E9" opacity="1.000000" stroke="none" 
	d="
M81.535446,81.537666 
	C79.863953,81.957764 77.205696,82.363213 77.097771,82.003494 
	C76.071671,78.583412 77.467705,76.319580 81.731895,75.376190 
	C81.731895,77.434937 81.731895,79.301483 81.535446,81.537666 
z"/>
</svg>